name rise30.8019peak61.5557fall86.2505.mot
datacolumns 19
datarows 24
range 10.25163000000000 10.28996000000000
endheader
time	ground_force1_vx	ground_force1_vy	ground_force1_vz	ground_force1_px	ground_force1_py	ground_force1_pz	ground_force2_vx	ground_force2_vy	ground_force2_vz	ground_force2_px	ground_force2_py	ground_force2_pz	ground_torque1_x	ground_torque1_y	ground_torque1_z	ground_torque2_x	ground_torque2_y	ground_torque2_z	
10.25163000000000	-7.77206300000000	690.62284899999997	29.06146000000000	0.11077600000000	0.00000000000000	0.09625900000000	0.00000000000000	0.00000000000000	0.00000000000000	0.00000000000000	0.00000000000000	0.00000000000000	0.00000000000000	9.96864500000000	0.00000000000000	0.00000000000000	0.00000000000000	0.00000000000000	
10.25329800000000	-8.24453500000000	691.47824500000002	29.08055500000000	0.10977700000000	0.00000000000000	0.09626300000000	0.00000000000000	0.00000000000000	0.00000000000000	0.00000000000000	0.00000000000000	0.00000000000000	0.00000000000000	10.04190600000000	0.00000000000000	0.00000000000000	0.00000000000000	0.00000000000000	
10.25496900000000	-8.72484900000000	692.34087299999999	29.10008800000000	0.10877500000000	0.00000000000000	0.09626700000000	0.00000000000000	0.00000000000000	0.00000000000000	0.00000000000000	0.00000000000000	0.00000000000000	0.00000000000000	10.11671500000000	0.00000000000000	0.00000000000000	0.00000000000000	0.00000000000000	
10.25663000000000	-9.21289000000000	693.21054000000004	29.12013400000000	0.10776800000000	0.00000000000000	0.09627100000000	0.00000000000000	0.00000000000000	0.00000000000000	0.00000000000000	0.00000000000000	0.00000000000000	0.00000000000000	10.19305400000000	0.00000000000000	0.00000000000000	0.00000000000000	0.00000000000000	
10.25829600000000	-9.70852400000000	694.08713599999999	29.14077800000000	0.10675800000000	0.00000000000000	0.09627500000000	0.00000000000000	0.00000000000000	0.00000000000000	0.00000000000000	0.00000000000000	0.00000000000000	0.00000000000000	10.27090500000000	0.00000000000000	0.00000000000000	0.00000000000000	0.00000000000000	
10.25996400000000	-10.21159800000000	694.97063100000003	29.16211100000000	0.10574500000000	0.00000000000000	0.09627900000000	0.00000000000000	0.00000000000000	0.00000000000000	0.00000000000000	0.00000000000000	0.00000000000000	0.00000000000000	10.35025000000000	0.00000000000000	0.00000000000000	0.00000000000000	0.00000000000000	
10.26163200000000	-10.72194500000000	695.86107800000002	29.18423300000000	0.10472800000000	0.00000000000000	0.09628300000000	0.00000000000000	0.00000000000000	0.00000000000000	0.00000000000000	0.00000000000000	0.00000000000000	0.00000000000000	10.43107000000000	0.00000000000000	0.00000000000000	0.00000000000000	0.00000000000000	
10.26329800000000	-11.23938100000000	696.75860100000000	29.20725000000000	0.10370700000000	0.00000000000000	0.09628800000000	0.00000000000000	0.00000000000000	0.00000000000000	0.00000000000000	0.00000000000000	0.00000000000000	0.00000000000000	10.51334400000000	0.00000000000000	0.00000000000000	0.00000000000000	0.00000000000000	
10.26496100000000	-11.76370700000000	697.66340100000002	29.23127200000000	0.10268400000000	0.00000000000000	0.09629200000000	0.00000000000000	0.00000000000000	0.00000000000000	0.00000000000000	0.00000000000000	0.00000000000000	0.00000000000000	10.59705100000000	0.00000000000000	0.00000000000000	0.00000000000000	0.00000000000000	
10.26663100000000	-12.29470700000000	698.57574299999999	29.25641600000000	0.10165800000000	0.00000000000000	0.09629700000000	0.00000000000000	0.00000000000000	0.00000000000000	0.00000000000000	0.00000000000000	0.00000000000000	0.00000000000000	10.68216800000000	0.00000000000000	0.00000000000000	0.00000000000000	0.00000000000000	
10.26829500000000	-12.83215300000000	699.49595599999998	29.28280000000000	0.10062900000000	0.00000000000000	0.09630200000000	0.00000000000000	0.00000000000000	0.00000000000000	0.00000000000000	0.00000000000000	0.00000000000000	0.00000000000000	10.76866800000000	0.00000000000000	0.00000000000000	0.00000000000000	0.00000000000000	
10.26996700000000	-13.37580200000000	700.42443000000003	29.31054800000000	0.09959800000000	0.00000000000000	0.09630700000000	0.00000000000000	0.00000000000000	0.00000000000000	0.00000000000000	0.00000000000000	0.00000000000000	0.00000000000000	10.85652600000000	0.00000000000000	0.00000000000000	0.00000000000000	0.00000000000000	
10.27163000000000	-13.92539600000000	701.36160700000005	29.33978400000000	0.09856500000000	0.00000000000000	0.09631200000000	0.00000000000000	0.00000000000000	0.00000000000000	0.00000000000000	0.00000000000000	0.00000000000000	0.00000000000000	10.94571100000000	0.00000000000000	0.00000000000000	0.00000000000000	0.00000000000000	
10.27329500000000	-14.48066700000000	702.30797900000005	29.37063500000000	0.09753000000000	0.00000000000000	0.09631800000000	0.00000000000000	0.00000000000000	0.00000000000000	0.00000000000000	0.00000000000000	0.00000000000000	0.00000000000000	11.03619100000000	0.00000000000000	0.00000000000000	0.00000000000000	0.00000000000000	
10.27496200000000	-15.04133300000000	703.26408400000003	29.40322900000000	0.09649300000000	0.00000000000000	0.09632400000000	0.00000000000000	0.00000000000000	0.00000000000000	0.00000000000000	0.00000000000000	0.00000000000000	0.00000000000000	11.12793100000000	0.00000000000000	0.00000000000000	0.00000000000000	0.00000000000000	
10.27662800000000	-15.60710100000000	704.23049500000002	29.43769700000000	0.09545600000000	0.00000000000000	0.09633000000000	0.00000000000000	0.00000000000000	0.00000000000000	0.00000000000000	0.00000000000000	0.00000000000000	0.00000000000000	11.22089300000000	0.00000000000000	0.00000000000000	0.00000000000000	0.00000000000000	
10.27829600000000	-16.17766500000000	705.20781999999997	29.47416800000000	0.09441800000000	0.00000000000000	0.09633700000000	0.00000000000000	0.00000000000000	0.00000000000000	0.00000000000000	0.00000000000000	0.00000000000000	0.00000000000000	11.31503800000000	0.00000000000000	0.00000000000000	0.00000000000000	0.00000000000000	
10.27996100000000	-16.75271000000000	706.19669499999998	29.51277200000000	0.09337900000000	0.00000000000000	0.09634400000000	0.00000000000000	0.00000000000000	0.00000000000000	0.00000000000000	0.00000000000000	0.00000000000000	0.00000000000000	11.41031900000000	0.00000000000000	0.00000000000000	0.00000000000000	0.00000000000000	
10.28163200000000	-17.33191000000000	707.19777799999997	29.55364100000000	0.09234100000000	0.00000000000000	0.09635100000000	0.00000000000000	0.00000000000000	0.00000000000000	0.00000000000000	0.00000000000000	0.00000000000000	0.00000000000000	11.50668900000000	0.00000000000000	0.00000000000000	0.00000000000000	0.00000000000000	
10.28329800000000	-17.91493100000000	708.21174099999996	29.59690300000000	0.09130300000000	0.00000000000000	0.09635900000000	0.00000000000000	0.00000000000000	0.00000000000000	0.00000000000000	0.00000000000000	0.00000000000000	0.00000000000000	11.60409800000000	0.00000000000000	0.00000000000000	0.00000000000000	0.00000000000000	
10.28496500000000	-18.50142600000000	709.23926800000004	29.64269000000000	0.09026700000000	0.00000000000000	0.09636700000000	0.00000000000000	0.00000000000000	0.00000000000000	0.00000000000000	0.00000000000000	0.00000000000000	0.00000000000000	11.70248900000000	0.00000000000000	0.00000000000000	0.00000000000000	0.00000000000000	
10.28662700000000	-19.09104400000000	710.28104599999995	29.69112900000000	0.08923200000000	0.00000000000000	0.09637600000000	0.00000000000000	0.00000000000000	0.00000000000000	0.00000000000000	0.00000000000000	0.00000000000000	0.00000000000000	11.80180300000000	0.00000000000000	0.00000000000000	0.00000000000000	0.00000000000000	
10.28830000000000	-19.68342300000000	711.33776100000000	29.74235000000000	0.08820000000000	0.00000000000000	0.09638500000000	0.00000000000000	0.00000000000000	0.00000000000000	0.00000000000000	0.00000000000000	0.00000000000000	0.00000000000000	11.90197700000000	0.00000000000000	0.00000000000000	0.00000000000000	0.00000000000000	
10.28996000000000	-20.27819300000000	712.41009099999997	29.79648000000000	0.08717000000000	0.00000000000000	0.09639500000000	0.00000000000000	0.00000000000000	0.00000000000000	0.00000000000000	0.00000000000000	0.00000000000000	0.00000000000000	12.00294500000000	0.00000000000000	0.00000000000000	0.00000000000000	0.00000000000000	
